<svg width="228" height="39" viewBox="0 0 228 39" fill="none" xmlns="http://www.w3.org/2000/svg">
<rect y="5" width="32" height="32" rx="10" fill="#3458FF"/>
<path d="M48.066 30V11.2663H41.861V9.21778H56.7648V11.2663H50.5598V30H48.066ZM63.6148 30.3563C62.2095 30.3563 60.9626 30.0396 59.874 29.4062C58.7854 28.7531 57.9244 27.8525 57.2911 26.7045C56.6775 25.5566 56.3707 24.2008 56.3707 22.6372C56.3707 21.0933 56.6775 19.7474 57.2911 18.5995C57.9047 17.4317 58.7557 16.5311 59.8443 15.8978C60.9527 15.2446 62.2293 14.918 63.6742 14.918C65.0993 14.918 66.3264 15.2446 67.3556 15.8978C68.4046 16.5311 69.2062 17.3723 69.7604 18.4213C70.3146 19.4703 70.5917 20.5985 70.5917 21.8059C70.5917 22.0236 70.5818 22.2413 70.562 22.459C70.562 22.6767 70.562 22.9241 70.562 23.2012H58.8349C58.8943 24.3294 59.1516 25.2696 59.6068 26.0217C60.0818 26.754 60.6657 27.3082 61.3585 27.6843C62.071 28.0603 62.8231 28.2484 63.6148 28.2484C64.644 28.2484 65.505 28.0108 66.1977 27.5358C66.8905 27.0608 67.3952 26.4175 67.7119 25.606H70.1761C69.7802 26.9717 69.0182 28.1098 67.89 29.0203C66.7816 29.9109 65.3566 30.3563 63.6148 30.3563ZM63.6148 17.026C62.4273 17.026 61.3684 17.3921 60.4381 18.1244C59.5276 18.837 59.0031 19.886 58.8646 21.2715H68.1275C68.0681 19.9454 67.6129 18.9063 66.7618 18.1541C65.9108 17.402 64.8617 17.026 63.6148 17.026ZM73.8971 30V15.2743H76.1535L76.3316 17.4119C76.8067 16.6202 77.44 16.0066 78.2317 15.5712C79.0234 15.1358 79.9141 14.918 80.9037 14.918C82.0715 14.918 83.071 15.1556 83.9023 15.6306C84.7534 16.1056 85.4065 16.828 85.8618 17.7979C86.3764 16.9072 87.079 16.2046 87.9697 15.69C88.8801 15.1753 89.8599 14.918 90.9089 14.918C92.6704 14.918 94.0757 15.4524 95.1247 16.5212C96.1737 17.5703 96.6982 19.1932 96.6982 21.3902V30H94.234V21.6574C94.234 20.1334 93.9272 18.9854 93.3137 18.2135C92.7001 17.4416 91.8193 17.0556 90.6714 17.0556C89.4838 17.0556 88.4942 17.5208 87.7025 18.451C86.9306 19.3615 86.5446 20.6678 86.5446 22.37V30H84.0507V21.6574C84.0507 20.1334 83.744 18.9854 83.1304 18.2135C82.5168 17.4416 81.636 17.0556 80.4881 17.0556C79.3203 17.0556 78.3406 17.5208 77.5489 18.451C76.777 19.3615 76.391 20.6678 76.391 22.37V30H73.8971ZM100.455 36.5316V15.2743H102.711L102.949 17.7088C103.424 16.9963 104.097 16.353 104.967 15.779C105.858 15.205 106.986 14.918 108.352 14.918C109.817 14.918 111.093 15.2545 112.182 15.9275C113.27 16.6004 114.112 17.5208 114.705 18.6885C115.319 19.8563 115.626 21.1824 115.626 22.6668C115.626 24.1513 115.319 25.4774 114.705 26.6452C114.112 27.7931 113.261 28.7036 112.152 29.3765C111.064 30.0297 109.787 30.3563 108.322 30.3563C107.115 30.3563 106.036 30.1089 105.086 29.614C104.156 29.1192 103.443 28.4265 102.949 27.5358V36.5316H100.455ZM108.055 28.189C109.045 28.189 109.916 27.9614 110.668 27.5061C111.42 27.0311 112.014 26.378 112.449 25.5467C112.885 24.7154 113.102 23.7455 113.102 22.6372C113.102 21.5288 112.885 20.5589 112.449 19.7276C112.014 18.8964 111.42 18.2531 110.668 17.7979C109.916 17.3228 109.045 17.0853 108.055 17.0853C107.066 17.0853 106.195 17.3228 105.443 17.7979C104.69 18.2531 104.097 18.8964 103.661 19.7276C103.226 20.5589 103.008 21.5288 103.008 22.6372C103.008 23.7455 103.226 24.7154 103.661 25.5467C104.097 26.378 104.69 27.0311 105.443 27.5061C106.195 27.9614 107.066 28.189 108.055 28.189ZM119.097 30V8.624H121.591V30H119.097ZM132.21 26.0514L125.59 19.3417L132.21 12.6617H137.02L130.34 19.3417L137.02 26.0514H132.21ZM139.795 30L147.396 9.21778H151.671L159.271 30H155.234L153.571 25.1904H145.466L143.774 30H139.795ZM146.505 22.2215H152.532L149.504 13.582L146.505 22.2215ZM162.661 23.4388L162.245 9.21778H166.313L165.867 23.4388H162.661ZM164.353 30.2078C163.641 30.2078 163.057 29.9901 162.602 29.5547C162.166 29.1192 161.948 28.5947 161.948 27.9812C161.948 27.3478 162.166 26.8134 162.602 26.378C163.057 25.9425 163.641 25.7248 164.353 25.7248C165.026 25.7248 165.58 25.9425 166.016 26.378C166.471 26.8134 166.699 27.3478 166.699 27.9812C166.699 28.5947 166.471 29.1192 166.016 29.5547C165.58 29.9901 165.026 30.2078 164.353 30.2078ZM170.793 26.0514L177.443 19.3417L170.793 12.6617H175.573L182.223 19.3417L175.573 26.0514H170.793ZM192.064 30C190.718 30 189.659 29.6734 188.888 29.0203C188.116 28.3671 187.73 27.1895 187.73 25.4873V17.3822H185.176V15.2743H187.73L188.056 11.7413H190.224V15.2743H194.558V17.3822H190.224V25.4873C190.224 26.4175 190.412 27.0509 190.788 27.3874C191.164 27.7041 191.827 27.8624 192.777 27.8624H194.321V30H192.064ZM203.941 30.3563C202.536 30.3563 201.289 30.0396 200.2 29.4062C199.112 28.7531 198.251 27.8525 197.617 26.7045C197.004 25.5566 196.697 24.2008 196.697 22.6372C196.697 21.0933 197.004 19.7474 197.617 18.5995C198.231 17.4317 199.082 16.5311 200.171 15.8978C201.279 15.2446 202.556 14.918 204.001 14.918C205.426 14.918 206.653 15.2446 207.682 15.8978C208.731 16.5311 209.533 17.3723 210.087 18.4213C210.641 19.4703 210.918 20.5985 210.918 21.8059C210.918 22.0236 210.908 22.2413 210.888 22.459C210.888 22.6767 210.888 22.9241 210.888 23.2012H199.161C199.221 24.3294 199.478 25.2696 199.933 26.0217C200.408 26.754 200.992 27.3082 201.685 27.6843C202.397 28.0603 203.15 28.2484 203.941 28.2484C204.97 28.2484 205.831 28.0108 206.524 27.5358C207.217 27.0608 207.722 26.4175 208.038 25.606H210.502C210.107 26.9717 209.345 28.1098 208.216 29.0203C207.108 29.9109 205.683 30.3563 203.941 30.3563ZM203.941 17.026C202.754 17.026 201.695 17.3921 200.764 18.1244C199.854 18.837 199.33 19.886 199.191 21.2715H208.454C208.395 19.9454 207.939 18.9063 207.088 18.1541C206.237 17.402 205.188 17.026 203.941 17.026ZM219.864 30.3563C218.103 30.3563 216.638 29.9109 215.47 29.0203C214.303 28.1296 213.62 26.9223 213.422 25.3982H215.975C216.134 26.1701 216.539 26.8431 217.192 27.4171C217.865 27.9713 218.766 28.2484 219.894 28.2484C220.943 28.2484 221.715 28.0306 222.21 27.5952C222.705 27.14 222.952 26.6056 222.952 25.992C222.952 25.1013 222.625 24.5076 221.972 24.2107C221.339 23.9138 220.438 23.6466 219.271 23.4091C218.479 23.2507 217.687 23.0231 216.896 22.7262C216.104 22.4293 215.441 22.0137 214.906 21.4793C214.372 20.9251 214.105 20.2027 214.105 19.312C214.105 18.0255 214.58 16.9765 215.53 16.165C216.5 15.3337 217.806 14.918 219.449 14.918C221.012 14.918 222.289 15.3139 223.279 16.1056C224.288 16.8775 224.872 17.9859 225.03 19.4308H222.566C222.467 18.6786 222.141 18.0948 221.586 17.6791C221.052 17.2437 220.33 17.026 219.419 17.026C218.528 17.026 217.836 17.214 217.341 17.59C216.866 17.9661 216.628 18.4609 216.628 19.0745C216.628 19.6683 216.935 20.1334 217.549 20.4699C218.182 20.8063 219.033 21.0933 220.102 21.3308C221.012 21.5288 221.873 21.7762 222.685 22.0731C223.516 22.3502 224.189 22.7757 224.704 23.3497C225.238 23.9039 225.505 24.7154 225.505 25.7842C225.525 27.1103 225.02 28.2088 223.991 29.0796C222.982 29.9307 221.606 30.3563 219.864 30.3563Z" fill="#F1FFEB"/>
<path d="M7.72777 23.904L5.05177 21.192L7.72777 18.492H9.67177L6.97177 21.192L9.67177 23.904H7.72777ZM10.7936 25.5L13.8656 17.1H15.5936L18.6656 25.5H17.0336L16.3616 23.556H13.0856L12.4016 25.5H10.7936ZM13.5056 22.356H15.9416L14.7176 18.864L13.5056 22.356ZM20.0356 22.848L19.8676 17.1H21.5116L21.3316 22.848H20.0356ZM20.7196 25.584C20.4316 25.584 20.1956 25.496 20.0116 25.32C19.8356 25.144 19.7476 24.932 19.7476 24.684C19.7476 24.428 19.8356 24.212 20.0116 24.036C20.1956 23.86 20.4316 23.772 20.7196 23.772C20.9916 23.772 21.2156 23.86 21.3916 24.036C21.5756 24.212 21.6676 24.428 21.6676 24.684C21.6676 24.932 21.5756 25.144 21.3916 25.32C21.2156 25.496 20.9916 25.584 20.7196 25.584ZM23.3224 23.904L26.0104 21.192L23.3224 18.492H25.2544L27.9424 21.192L25.2544 23.904H23.3224Z" fill="#F1FFEB"/>
</svg>
