<svg width="350" height="76" viewBox="0 0 350 76" fill="none" xmlns="http://www.w3.org/2000/svg">
<g clip-path="url(#clip0_386_378)">
<g filter="url(#filter0_ddd_386_378)">
<path d="M324.677 51.8563C321.613 51.8563 319.065 51.0805 317.033 49.529C315.001 47.9775 313.813 45.8744 313.469 43.2197H317.911C318.186 44.5643 318.892 45.7365 320.029 46.7364C321.199 47.7017 322.766 48.1844 324.729 48.1844C326.554 48.1844 327.897 47.8052 328.758 47.0467C329.618 46.2537 330.049 45.3228 330.049 44.254C330.049 42.7025 329.481 41.6682 328.344 41.151C327.242 40.6339 325.676 40.1684 323.644 39.7547C322.267 39.4789 320.889 39.0824 319.512 38.5652C318.135 38.048 316.981 37.324 316.052 36.3931C315.122 35.4278 314.657 34.1693 314.657 32.6179C314.657 30.3768 315.483 28.5495 317.136 27.1359C318.823 25.6879 321.096 24.9639 323.954 24.9639C326.674 24.9639 328.895 25.6534 330.617 27.0325C332.373 28.3771 333.389 30.3079 333.664 32.8247H329.377C329.205 31.5146 328.637 30.4975 327.673 29.7735C326.743 29.015 325.486 28.6357 323.902 28.6357C322.353 28.6357 321.148 28.9632 320.287 29.6183C319.46 30.2734 319.047 31.1353 319.047 32.2041C319.047 33.2384 319.581 34.0487 320.648 34.6348C321.75 35.2209 323.231 35.7208 325.09 36.1345C326.674 36.4793 328.172 36.9103 329.584 37.4275C331.03 37.9101 332.201 38.6514 333.096 39.6512C334.026 40.6166 334.491 42.0302 334.491 43.892C334.525 46.202 333.647 48.1155 331.857 49.6325C330.1 51.115 327.707 51.8563 324.677 51.8563Z" fill="#F1FFEB"/>
</g>
<g filter="url(#filter1_ddd_386_378)">
<path d="M296.975 51.8563C294.53 51.8563 292.361 51.3046 290.467 50.2013C288.573 49.0636 287.076 47.4949 285.974 45.4952C284.906 43.4955 284.372 41.1338 284.372 38.4101C284.372 35.7208 284.906 33.3764 285.974 31.3767C287.041 29.3425 288.522 27.7738 290.416 26.6705C292.344 25.5327 294.565 24.9639 297.078 24.9639C299.558 24.9639 301.693 25.5327 303.483 26.6705C305.308 27.7738 306.703 29.2391 307.667 31.0664C308.631 32.8937 309.113 34.8589 309.113 36.962C309.113 37.3413 309.096 37.7205 309.061 38.0998C309.061 38.479 309.061 38.91 309.061 39.3927H288.659C288.763 41.3579 289.21 42.9956 290.002 44.3057C290.829 45.5814 291.845 46.5467 293.05 47.2018C294.289 47.8569 295.598 48.1844 296.975 48.1844C298.766 48.1844 300.264 47.7707 301.469 46.9432C302.674 46.1158 303.552 44.9952 304.103 43.5817H308.39C307.701 45.9606 306.376 47.9431 304.413 49.529C302.485 51.0805 300.005 51.8563 296.975 51.8563ZM296.975 28.6357C294.909 28.6357 293.067 29.2735 291.449 30.5492C289.865 31.7904 288.952 33.6177 288.711 36.0311H304.826C304.723 33.7211 303.931 31.9111 302.45 30.6009C300.97 29.2908 299.145 28.6357 296.975 28.6357Z" fill="#F1FFEB"/>
</g>
<g filter="url(#filter2_ddd_386_378)">
<path d="M276.313 51.2361C273.971 51.2361 272.129 50.6672 270.786 49.5295C269.443 48.3917 268.772 46.3403 268.772 43.3752V29.2567H264.33V25.5849H268.772L269.34 19.4307H273.11V25.5849H280.651V29.2567H273.11V43.3752C273.11 44.9957 273.437 46.0989 274.092 46.6851C274.746 47.2367 275.899 47.5125 277.552 47.5125H280.238V51.2361H276.313Z" fill="#F1FFEB"/>
</g>
<g filter="url(#filter3_ddd_386_378)">
<path d="M239.306 44.3572L250.875 32.6693L239.306 21.0332H247.621L259.191 32.6693L247.621 44.3572H239.306Z" fill="#F1FFEB"/>
</g>
<g filter="url(#filter4_ddd_386_378)">
<path d="M225.159 39.8062L224.436 15.0342H231.512L230.737 39.8062H225.159ZM228.103 51.5975C226.863 51.5975 225.847 51.2182 225.055 50.4597C224.298 49.7012 223.919 48.7876 223.919 47.7188C223.919 46.6155 224.298 45.6846 225.055 44.9261C225.847 44.1676 226.863 43.7883 228.103 43.7883C229.274 43.7883 230.238 44.1676 230.995 44.9261C231.787 45.6846 232.183 46.6155 232.183 47.7188C232.183 48.7876 231.787 49.7012 230.995 50.4597C230.238 51.2182 229.274 51.5975 228.103 51.5975Z" fill="#F1FFEB"/>
</g>
<g filter="url(#filter5_ddd_386_378)">
<path d="M185.379 51.2355L198.602 15.0342H206.039L219.262 51.2355H212.237L209.345 42.8575H195.244L192.3 51.2355H185.379ZM197.052 37.6858H207.537L202.269 22.6365L197.052 37.6858Z" fill="#F1FFEB"/>
</g>
<g filter="url(#filter6_ddd_386_378)">
<path d="M172.183 44.3572L160.665 32.6693L172.183 21.0332H180.55L168.929 32.6693L180.55 44.3572H172.183Z" fill="#F1FFEB"/>
</g>
<g filter="url(#filter7_ddd_386_378)">
<path d="M149.37 51.2356V14H153.709V51.2356H149.37Z" fill="#F1FFEB"/>
</g>
<g filter="url(#filter8_ddd_386_378)">
<path d="M116.937 62.6132V25.5845H120.863L121.276 29.8252C122.102 28.584 123.273 27.4635 124.788 26.4636C126.338 25.4638 128.3 24.9639 130.676 24.9639C133.224 24.9639 135.445 25.55 137.339 26.7222C139.233 27.8944 140.696 29.4976 141.729 31.5318C142.797 33.566 143.331 35.876 143.331 38.4618C143.331 41.0476 142.797 43.3576 141.729 45.3917C140.696 47.3914 139.216 48.9774 137.288 50.1496C135.394 51.2874 133.173 51.8563 130.625 51.8563C128.524 51.8563 126.647 51.4253 124.995 50.5634C123.376 49.7014 122.137 48.4947 121.276 46.9432V62.6132H116.937ZM130.16 48.081C131.881 48.081 133.396 47.6845 134.705 46.8915C136.013 46.064 137.046 44.9263 137.804 43.4782C138.562 42.0302 138.94 40.3408 138.94 38.4101C138.94 36.4793 138.562 34.7899 137.804 33.3419C137.046 31.8938 136.013 30.7733 134.705 29.9803C133.396 29.1529 131.881 28.7391 130.16 28.7391C128.438 28.7391 126.923 29.1529 125.614 29.9803C124.306 30.7733 123.273 31.8938 122.515 33.3419C121.758 34.7899 121.379 36.4793 121.379 38.4101C121.379 40.3408 121.758 42.0302 122.515 43.4782C123.273 44.9263 124.306 46.064 125.614 46.8915C126.923 47.6845 128.438 48.081 130.16 48.081Z" fill="#F1FFEB"/>
</g>
<g filter="url(#filter9_ddd_386_378)">
<path d="M70.7341 51.2357V25.5845H74.6596L74.9695 29.308C75.7959 27.9289 76.8978 26.8601 78.2751 26.1016C79.6525 25.3431 81.202 24.9639 82.9237 24.9639C84.9552 24.9639 86.6941 25.3776 88.1404 26.2051C89.621 27.0325 90.7573 28.2909 91.5493 29.9803C92.4446 28.4288 93.667 27.2049 95.2165 26.3085C96.8004 25.4121 98.5049 24.9639 100.33 24.9639C103.394 24.9639 105.839 25.8948 107.664 27.7565C109.489 29.5838 110.402 32.411 110.402 36.238V51.2357H106.115V36.7034C106.115 34.0487 105.581 32.049 104.514 30.7044C103.446 29.3597 101.914 28.6874 99.9167 28.6874C97.8507 28.6874 96.129 29.4976 94.7516 31.1181C93.4087 32.704 92.7373 34.9796 92.7373 37.9446V51.2357H88.3986V36.7034C88.3986 34.0487 87.8649 32.049 86.7974 30.7044C85.73 29.3597 84.1977 28.6874 82.2005 28.6874C80.169 28.6874 78.4645 29.4976 77.0871 31.1181C75.7442 32.704 75.0728 34.9796 75.0728 37.9446V51.2357H70.7341Z" fill="#F1FFEB"/>
</g>
<g filter="url(#filter10_ddd_386_378)">
<path d="M52.8457 51.8563C50.4009 51.8563 48.2316 51.3046 46.3377 50.2013C44.4439 49.0636 42.946 47.4949 41.8441 45.4952C40.7767 43.4955 40.243 41.1338 40.243 38.4101C40.243 35.7208 40.7767 33.3764 41.8441 31.3767C42.9116 29.3425 44.3922 27.7738 46.2861 26.6705C48.2144 25.5327 50.4354 24.9639 52.949 24.9639C55.4282 24.9639 57.5631 25.5327 59.3537 26.6705C61.1787 27.7738 62.5732 29.2391 63.5374 31.0664C64.5015 32.8937 64.9836 34.8589 64.9836 36.962C64.9836 37.3413 64.9664 37.7205 64.9319 38.0998C64.9319 38.479 64.9319 38.91 64.9319 39.3927H44.53C44.6333 41.3579 45.0809 42.9956 45.8729 44.3057C46.6993 45.5814 47.7151 46.5467 48.9203 47.2018C50.1599 47.8569 51.4684 48.1844 52.8457 48.1844C54.6363 48.1844 56.1341 47.7707 57.3393 46.9432C58.5445 46.1158 59.4225 44.9952 59.9735 43.5817H64.2605C63.5718 45.9606 62.2461 47.9431 60.2834 49.529C58.3551 51.0805 55.8759 51.8563 52.8457 51.8563ZM52.8457 28.6357C50.7797 28.6357 48.9375 29.2735 47.3191 30.5492C45.7352 31.7904 44.8227 33.6177 44.5816 36.0311H60.6966C60.5933 33.7211 59.8013 31.9111 58.3207 30.6009C56.84 29.2908 55.015 28.6357 52.8457 28.6357Z" fill="#F1FFEB"/>
</g>
<g filter="url(#filter11_ddd_386_378)">
<path d="M25.795 51.2355V18.6026H15V15.0342H40.9286V18.6026H30.1336V51.2355H25.795Z" fill="#F1FFEB"/>
</g>
<path d="M324.677 51.8563C321.613 51.8563 319.065 51.0805 317.033 49.529C315.001 47.9775 313.813 45.8744 313.469 43.2197H317.911C318.186 44.5643 318.892 45.7365 320.029 46.7364C321.199 47.7017 322.766 48.1844 324.729 48.1844C326.554 48.1844 327.897 47.8052 328.758 47.0467C329.618 46.2537 330.049 45.3228 330.049 44.254C330.049 42.7025 329.481 41.6682 328.344 41.151C327.242 40.6339 325.676 40.1684 323.644 39.7547C322.267 39.4789 320.889 39.0824 319.512 38.5652C318.135 38.048 316.981 37.324 316.052 36.3931C315.122 35.4278 314.657 34.1693 314.657 32.6179C314.657 30.3768 315.483 28.5495 317.136 27.1359C318.823 25.6879 321.096 24.9639 323.954 24.9639C326.674 24.9639 328.895 25.6534 330.617 27.0325C332.373 28.3771 333.389 30.3079 333.664 32.8247H329.377C329.205 31.5146 328.637 30.4975 327.673 29.7735C326.743 29.015 325.486 28.6357 323.902 28.6357C322.353 28.6357 321.148 28.9632 320.287 29.6183C319.46 30.2734 319.047 31.1353 319.047 32.2041C319.047 33.2384 319.581 34.0487 320.648 34.6348C321.75 35.2209 323.231 35.7208 325.09 36.1345C326.674 36.4793 328.172 36.9103 329.584 37.4275C331.03 37.9101 332.201 38.6514 333.096 39.6512C334.026 40.6166 334.491 42.0302 334.491 43.892C334.525 46.202 333.647 48.1155 331.857 49.6325C330.1 51.115 327.707 51.8563 324.677 51.8563Z" fill="#F1FFEB"/>
<path d="M296.975 51.8563C294.53 51.8563 292.361 51.3046 290.467 50.2013C288.573 49.0636 287.075 47.4949 285.974 45.4952C284.906 43.4955 284.372 41.1338 284.372 38.4101C284.372 35.7208 284.906 33.3764 285.974 31.3767C287.041 29.3425 288.522 27.7738 290.416 26.6705C292.344 25.5327 294.565 24.9639 297.078 24.9639C299.558 24.9639 301.693 25.5327 303.483 26.6705C305.308 27.7738 306.703 29.2391 307.667 31.0664C308.631 32.8937 309.113 34.8589 309.113 36.962C309.113 37.3413 309.096 37.7205 309.061 38.0998C309.061 38.479 309.061 38.91 309.061 39.3927H288.659C288.763 41.3579 289.21 42.9956 290.002 44.3057C290.829 45.5814 291.845 46.5467 293.05 47.2018C294.289 47.8569 295.598 48.1844 296.975 48.1844C298.766 48.1844 300.264 47.7707 301.469 46.9432C302.674 46.1158 303.552 44.9952 304.103 43.5817H308.39C307.701 45.9606 306.376 47.9431 304.413 49.529C302.485 51.0805 300.005 51.8563 296.975 51.8563ZM296.975 28.6357C294.909 28.6357 293.067 29.2735 291.449 30.5492C289.865 31.7904 288.952 33.6177 288.711 36.0311H304.826C304.723 33.7211 303.931 31.9111 302.45 30.6009C300.969 29.2908 299.144 28.6357 296.975 28.6357Z" fill="#F1FFEB"/>
<path d="M276.313 51.2351C273.971 51.2351 272.129 50.6662 270.786 49.5285C269.443 48.3907 268.772 46.3393 268.772 43.3743V29.2558H264.33V25.5839H268.772L269.34 19.4297H273.11V25.5839H280.651V29.2558H273.11V43.3743C273.11 44.9947 273.437 46.098 274.092 46.6841C274.746 47.2357 275.899 47.5115 277.552 47.5115H280.238V51.2351H276.313Z" fill="#F1FFEB"/>
<path d="M239.306 44.3582L250.875 32.6703L239.306 21.0342H247.621L259.191 32.6703L247.621 44.3582H239.306Z" fill="#F1FFEB"/>
<path d="M225.159 39.8062L224.436 15.0342H231.512L230.737 39.8062H225.159ZM228.103 51.5975C226.863 51.5975 225.847 51.2182 225.055 50.4597C224.298 49.7012 223.919 48.7876 223.919 47.7188C223.919 46.6155 224.298 45.6846 225.055 44.9261C225.847 44.1676 226.863 43.7883 228.103 43.7883C229.274 43.7883 230.238 44.1676 230.995 44.9261C231.787 45.6846 232.183 46.6155 232.183 47.7188C232.183 48.7876 231.787 49.7012 230.995 50.4597C230.238 51.2182 229.274 51.5975 228.103 51.5975Z" fill="#F1FFEB"/>
<path d="M185.379 51.2355L198.601 15.0342H206.039L219.262 51.2355H212.237L209.345 42.8575H195.244L192.3 51.2355H185.379ZM197.052 37.6858H207.537L202.269 22.6365L197.052 37.6858Z" fill="#F1FFEB"/>
<path d="M172.183 44.3582L160.665 32.6703L172.183 21.0342H180.55L168.929 32.6703L180.55 44.3582H172.183Z" fill="#F1FFEB"/>
<path d="M149.37 51.2356V14H153.709V51.2356H149.37Z" fill="#F1FFEB"/>
<path d="M116.937 62.6132V25.5845H120.863L121.276 29.8252C122.102 28.584 123.273 27.4635 124.788 26.4636C126.338 25.4638 128.3 24.9639 130.676 24.9639C133.224 24.9639 135.445 25.55 137.339 26.7222C139.233 27.8944 140.696 29.4976 141.729 31.5318C142.797 33.566 143.331 35.876 143.331 38.4618C143.331 41.0476 142.797 43.3576 141.729 45.3917C140.696 47.3914 139.216 48.9774 137.288 50.1496C135.394 51.2874 133.173 51.8563 130.625 51.8563C128.524 51.8563 126.647 51.4253 124.995 50.5634C123.376 49.7014 122.137 48.4947 121.276 46.9432V62.6132H116.937ZM130.16 48.081C131.881 48.081 133.396 47.6845 134.705 46.8915C136.013 46.064 137.046 44.9263 137.804 43.4782C138.562 42.0302 138.94 40.3408 138.94 38.4101C138.94 36.4793 138.562 34.7899 137.804 33.3419C137.046 31.8938 136.013 30.7733 134.705 29.9803C133.396 29.1529 131.881 28.7391 130.16 28.7391C128.438 28.7391 126.923 29.1529 125.614 29.9803C124.306 30.7733 123.273 31.8938 122.515 33.3419C121.758 34.7899 121.379 36.4793 121.379 38.4101C121.379 40.3408 121.758 42.0302 122.515 43.4782C123.273 44.9263 124.306 46.064 125.614 46.8915C126.923 47.6845 128.438 48.081 130.16 48.081Z" fill="#F1FFEB"/>
<path d="M70.7341 51.2357V25.5845H74.6596L74.9695 29.308C75.7959 27.9289 76.8978 26.8601 78.2751 26.1016C79.6525 25.3431 81.202 24.9639 82.9237 24.9639C84.9552 24.9639 86.6941 25.3776 88.1404 26.2051C89.621 27.0325 90.7573 28.2909 91.5493 29.9803C92.4446 28.4288 93.667 27.2049 95.2165 26.3085C96.8004 25.4121 98.5049 24.9639 100.33 24.9639C103.394 24.9639 105.839 25.8948 107.664 27.7565C109.489 29.5838 110.402 32.411 110.402 36.238V51.2357H106.115V36.7034C106.115 34.0487 105.581 32.049 104.514 30.7044C103.446 29.3597 101.914 28.6874 99.9167 28.6874C97.8507 28.6874 96.129 29.4976 94.7516 31.1181C93.4087 32.704 92.7373 34.9796 92.7373 37.9446V51.2357H88.3986V36.7034C88.3986 34.0487 87.8649 32.049 86.7974 30.7044C85.73 29.3597 84.1977 28.6874 82.2005 28.6874C80.169 28.6874 78.4645 29.4976 77.0871 31.1181C75.7442 32.704 75.0728 34.9796 75.0728 37.9446V51.2357H70.7341Z" fill="#F1FFEB"/>
<path d="M52.8458 51.8563C50.401 51.8563 48.2317 51.3046 46.3378 50.2013C44.444 49.0636 42.9461 47.4949 41.8442 45.4952C40.7768 43.4955 40.243 41.1338 40.243 38.4101C40.243 35.7208 40.7768 33.3764 41.8442 31.3767C42.9117 29.3425 44.3923 27.7738 46.2862 26.6705C48.2144 25.5327 50.4354 24.9639 52.9491 24.9639C55.4283 24.9639 57.5632 25.5327 59.3537 26.6705C61.1787 27.7738 62.5733 29.2391 63.5374 31.0664C64.5016 32.8937 64.9836 34.8589 64.9836 36.962C64.9836 37.3413 64.9664 37.7205 64.932 38.0998C64.932 38.479 64.932 38.91 64.932 39.3927H44.53C44.6333 41.3579 45.081 42.9956 45.8729 44.3057C46.6994 45.5814 47.7152 46.5467 48.9203 47.2018C50.1599 47.8569 51.4684 48.1844 52.8458 48.1844C54.6363 48.1844 56.1342 47.7707 57.3394 46.9432C58.5445 46.1158 59.4226 44.9952 59.9735 43.5817H64.2605C63.5719 45.9606 62.2462 47.9431 60.2835 49.529C58.3552 51.0805 55.8759 51.8563 52.8458 51.8563ZM52.8458 28.6357C50.7798 28.6357 48.9375 29.2735 47.3192 30.5492C45.7352 31.7904 44.8227 33.6177 44.5817 36.0311H60.6967C60.5934 33.7211 59.8014 31.9111 58.3207 30.6009C56.8401 29.2908 55.0151 28.6357 52.8458 28.6357Z" fill="#F1FFEB"/>
<path d="M25.795 51.2355V18.6026H15V15.0342H40.9286V18.6026H30.1336V51.2355H25.795Z" fill="#F1FFEB"/>
</g>
<defs>
<filter id="filter0_ddd_386_378" x="289.469" y="0.963867" width="69.0227" height="74.8926" filterUnits="userSpaceOnUse" color-interpolation-filters="sRGB">
<feFlood flood-opacity="0" result="BackgroundImageFix"/>
<feColorMatrix in="SourceAlpha" type="matrix" values="0 0 0 0 0 0 0 0 0 0 0 0 0 0 0 0 0 0 127 0" result="hardAlpha"/>
<feOffset/>
<feGaussianBlur stdDeviation="12"/>
<feComposite in2="hardAlpha" operator="out"/>
<feColorMatrix type="matrix" values="0 0 0 0 0 0 0 0 0 0 0 0 0 0 0 0 0 0 0.5 0"/>
<feBlend mode="normal" in2="BackgroundImageFix" result="effect1_dropShadow_386_378"/>
<feColorMatrix in="SourceAlpha" type="matrix" values="0 0 0 0 0 0 0 0 0 0 0 0 0 0 0 0 0 0 127 0" result="hardAlpha"/>
<feOffset/>
<feGaussianBlur stdDeviation="8"/>
<feComposite in2="hardAlpha" operator="out"/>
<feColorMatrix type="matrix" values="0 0 0 0 0 0 0 0 0 0 0 0 0 0 0 0 0 0 0.25 0"/>
<feBlend mode="normal" in2="effect1_dropShadow_386_378" result="effect2_dropShadow_386_378"/>
<feColorMatrix in="SourceAlpha" type="matrix" values="0 0 0 0 0 0 0 0 0 0 0 0 0 0 0 0 0 0 127 0" result="hardAlpha"/>
<feOffset/>
<feGaussianBlur stdDeviation="4"/>
<feComposite in2="hardAlpha" operator="out"/>
<feColorMatrix type="matrix" values="0 0 0 0 0 0 0 0 0 0 0 0 0 0 0 0 0 0 0.25 0"/>
<feBlend mode="normal" in2="effect2_dropShadow_386_378" result="effect3_dropShadow_386_378"/>
<feBlend mode="normal" in="SourceGraphic" in2="effect3_dropShadow_386_378" result="shape"/>
</filter>
<filter id="filter1_ddd_386_378" x="260.372" y="0.963867" width="72.7406" height="74.8926" filterUnits="userSpaceOnUse" color-interpolation-filters="sRGB">
<feFlood flood-opacity="0" result="BackgroundImageFix"/>
<feColorMatrix in="SourceAlpha" type="matrix" values="0 0 0 0 0 0 0 0 0 0 0 0 0 0 0 0 0 0 127 0" result="hardAlpha"/>
<feOffset/>
<feGaussianBlur stdDeviation="12"/>
<feComposite in2="hardAlpha" operator="out"/>
<feColorMatrix type="matrix" values="0 0 0 0 0 0 0 0 0 0 0 0 0 0 0 0 0 0 0.5 0"/>
<feBlend mode="normal" in2="BackgroundImageFix" result="effect1_dropShadow_386_378"/>
<feColorMatrix in="SourceAlpha" type="matrix" values="0 0 0 0 0 0 0 0 0 0 0 0 0 0 0 0 0 0 127 0" result="hardAlpha"/>
<feOffset/>
<feGaussianBlur stdDeviation="8"/>
<feComposite in2="hardAlpha" operator="out"/>
<feColorMatrix type="matrix" values="0 0 0 0 0 0 0 0 0 0 0 0 0 0 0 0 0 0 0.25 0"/>
<feBlend mode="normal" in2="effect1_dropShadow_386_378" result="effect2_dropShadow_386_378"/>
<feColorMatrix in="SourceAlpha" type="matrix" values="0 0 0 0 0 0 0 0 0 0 0 0 0 0 0 0 0 0 127 0" result="hardAlpha"/>
<feOffset/>
<feGaussianBlur stdDeviation="4"/>
<feComposite in2="hardAlpha" operator="out"/>
<feColorMatrix type="matrix" values="0 0 0 0 0 0 0 0 0 0 0 0 0 0 0 0 0 0 0.25 0"/>
<feBlend mode="normal" in2="effect2_dropShadow_386_378" result="effect3_dropShadow_386_378"/>
<feBlend mode="normal" in="SourceGraphic" in2="effect3_dropShadow_386_378" result="shape"/>
</filter>
<filter id="filter2_ddd_386_378" x="240.33" y="-4.56934" width="64.3216" height="79.8057" filterUnits="userSpaceOnUse" color-interpolation-filters="sRGB">
<feFlood flood-opacity="0" result="BackgroundImageFix"/>
<feColorMatrix in="SourceAlpha" type="matrix" values="0 0 0 0 0 0 0 0 0 0 0 0 0 0 0 0 0 0 127 0" result="hardAlpha"/>
<feOffset/>
<feGaussianBlur stdDeviation="12"/>
<feComposite in2="hardAlpha" operator="out"/>
<feColorMatrix type="matrix" values="0 0 0 0 0 0 0 0 0 0 0 0 0 0 0 0 0 0 0.5 0"/>
<feBlend mode="normal" in2="BackgroundImageFix" result="effect1_dropShadow_386_378"/>
<feColorMatrix in="SourceAlpha" type="matrix" values="0 0 0 0 0 0 0 0 0 0 0 0 0 0 0 0 0 0 127 0" result="hardAlpha"/>
<feOffset/>
<feGaussianBlur stdDeviation="8"/>
<feComposite in2="hardAlpha" operator="out"/>
<feColorMatrix type="matrix" values="0 0 0 0 0 0 0 0 0 0 0 0 0 0 0 0 0 0 0.25 0"/>
<feBlend mode="normal" in2="effect1_dropShadow_386_378" result="effect2_dropShadow_386_378"/>
<feColorMatrix in="SourceAlpha" type="matrix" values="0 0 0 0 0 0 0 0 0 0 0 0 0 0 0 0 0 0 127 0" result="hardAlpha"/>
<feOffset/>
<feGaussianBlur stdDeviation="4"/>
<feComposite in2="hardAlpha" operator="out"/>
<feColorMatrix type="matrix" values="0 0 0 0 0 0 0 0 0 0 0 0 0 0 0 0 0 0 0.25 0"/>
<feBlend mode="normal" in2="effect2_dropShadow_386_378" result="effect3_dropShadow_386_378"/>
<feBlend mode="normal" in="SourceGraphic" in2="effect3_dropShadow_386_378" result="shape"/>
</filter>
<filter id="filter3_ddd_386_378" x="215.306" y="-2.9668" width="67.8855" height="71.3242" filterUnits="userSpaceOnUse" color-interpolation-filters="sRGB">
<feFlood flood-opacity="0" result="BackgroundImageFix"/>
<feColorMatrix in="SourceAlpha" type="matrix" values="0 0 0 0 0 0 0 0 0 0 0 0 0 0 0 0 0 0 127 0" result="hardAlpha"/>
<feOffset/>
<feGaussianBlur stdDeviation="12"/>
<feComposite in2="hardAlpha" operator="out"/>
<feColorMatrix type="matrix" values="0 0 0 0 0 0 0 0 0 0 0 0 0 0 0 0 0 0 0.5 0"/>
<feBlend mode="normal" in2="BackgroundImageFix" result="effect1_dropShadow_386_378"/>
<feColorMatrix in="SourceAlpha" type="matrix" values="0 0 0 0 0 0 0 0 0 0 0 0 0 0 0 0 0 0 127 0" result="hardAlpha"/>
<feOffset/>
<feGaussianBlur stdDeviation="8"/>
<feComposite in2="hardAlpha" operator="out"/>
<feColorMatrix type="matrix" values="0 0 0 0 0 0 0 0 0 0 0 0 0 0 0 0 0 0 0.25 0"/>
<feBlend mode="normal" in2="effect1_dropShadow_386_378" result="effect2_dropShadow_386_378"/>
<feColorMatrix in="SourceAlpha" type="matrix" values="0 0 0 0 0 0 0 0 0 0 0 0 0 0 0 0 0 0 127 0" result="hardAlpha"/>
<feOffset/>
<feGaussianBlur stdDeviation="4"/>
<feComposite in2="hardAlpha" operator="out"/>
<feColorMatrix type="matrix" values="0 0 0 0 0 0 0 0 0 0 0 0 0 0 0 0 0 0 0.25 0"/>
<feBlend mode="normal" in2="effect2_dropShadow_386_378" result="effect3_dropShadow_386_378"/>
<feBlend mode="normal" in="SourceGraphic" in2="effect3_dropShadow_386_378" result="shape"/>
</filter>
<filter id="filter4_ddd_386_378" x="199.919" y="-8.96582" width="56.2641" height="84.5635" filterUnits="userSpaceOnUse" color-interpolation-filters="sRGB">
<feFlood flood-opacity="0" result="BackgroundImageFix"/>
<feColorMatrix in="SourceAlpha" type="matrix" values="0 0 0 0 0 0 0 0 0 0 0 0 0 0 0 0 0 0 127 0" result="hardAlpha"/>
<feOffset/>
<feGaussianBlur stdDeviation="12"/>
<feComposite in2="hardAlpha" operator="out"/>
<feColorMatrix type="matrix" values="0 0 0 0 0 0 0 0 0 0 0 0 0 0 0 0 0 0 0.5 0"/>
<feBlend mode="normal" in2="BackgroundImageFix" result="effect1_dropShadow_386_378"/>
<feColorMatrix in="SourceAlpha" type="matrix" values="0 0 0 0 0 0 0 0 0 0 0 0 0 0 0 0 0 0 127 0" result="hardAlpha"/>
<feOffset/>
<feGaussianBlur stdDeviation="8"/>
<feComposite in2="hardAlpha" operator="out"/>
<feColorMatrix type="matrix" values="0 0 0 0 0 0 0 0 0 0 0 0 0 0 0 0 0 0 0.25 0"/>
<feBlend mode="normal" in2="effect1_dropShadow_386_378" result="effect2_dropShadow_386_378"/>
<feColorMatrix in="SourceAlpha" type="matrix" values="0 0 0 0 0 0 0 0 0 0 0 0 0 0 0 0 0 0 127 0" result="hardAlpha"/>
<feOffset/>
<feGaussianBlur stdDeviation="4"/>
<feComposite in2="hardAlpha" operator="out"/>
<feColorMatrix type="matrix" values="0 0 0 0 0 0 0 0 0 0 0 0 0 0 0 0 0 0 0.25 0"/>
<feBlend mode="normal" in2="effect2_dropShadow_386_378" result="effect3_dropShadow_386_378"/>
<feBlend mode="normal" in="SourceGraphic" in2="effect3_dropShadow_386_378" result="shape"/>
</filter>
<filter id="filter5_ddd_386_378" x="161.379" y="-8.96582" width="81.8828" height="84.2012" filterUnits="userSpaceOnUse" color-interpolation-filters="sRGB">
<feFlood flood-opacity="0" result="BackgroundImageFix"/>
<feColorMatrix in="SourceAlpha" type="matrix" values="0 0 0 0 0 0 0 0 0 0 0 0 0 0 0 0 0 0 127 0" result="hardAlpha"/>
<feOffset/>
<feGaussianBlur stdDeviation="12"/>
<feComposite in2="hardAlpha" operator="out"/>
<feColorMatrix type="matrix" values="0 0 0 0 0 0 0 0 0 0 0 0 0 0 0 0 0 0 0.5 0"/>
<feBlend mode="normal" in2="BackgroundImageFix" result="effect1_dropShadow_386_378"/>
<feColorMatrix in="SourceAlpha" type="matrix" values="0 0 0 0 0 0 0 0 0 0 0 0 0 0 0 0 0 0 127 0" result="hardAlpha"/>
<feOffset/>
<feGaussianBlur stdDeviation="8"/>
<feComposite in2="hardAlpha" operator="out"/>
<feColorMatrix type="matrix" values="0 0 0 0 0 0 0 0 0 0 0 0 0 0 0 0 0 0 0.25 0"/>
<feBlend mode="normal" in2="effect1_dropShadow_386_378" result="effect2_dropShadow_386_378"/>
<feColorMatrix in="SourceAlpha" type="matrix" values="0 0 0 0 0 0 0 0 0 0 0 0 0 0 0 0 0 0 127 0" result="hardAlpha"/>
<feOffset/>
<feGaussianBlur stdDeviation="4"/>
<feComposite in2="hardAlpha" operator="out"/>
<feColorMatrix type="matrix" values="0 0 0 0 0 0 0 0 0 0 0 0 0 0 0 0 0 0 0.25 0"/>
<feBlend mode="normal" in2="effect2_dropShadow_386_378" result="effect3_dropShadow_386_378"/>
<feBlend mode="normal" in="SourceGraphic" in2="effect3_dropShadow_386_378" result="shape"/>
</filter>
<filter id="filter6_ddd_386_378" x="136.665" y="-2.9668" width="67.8855" height="71.3242" filterUnits="userSpaceOnUse" color-interpolation-filters="sRGB">
<feFlood flood-opacity="0" result="BackgroundImageFix"/>
<feColorMatrix in="SourceAlpha" type="matrix" values="0 0 0 0 0 0 0 0 0 0 0 0 0 0 0 0 0 0 127 0" result="hardAlpha"/>
<feOffset/>
<feGaussianBlur stdDeviation="12"/>
<feComposite in2="hardAlpha" operator="out"/>
<feColorMatrix type="matrix" values="0 0 0 0 0 0 0 0 0 0 0 0 0 0 0 0 0 0 0.5 0"/>
<feBlend mode="normal" in2="BackgroundImageFix" result="effect1_dropShadow_386_378"/>
<feColorMatrix in="SourceAlpha" type="matrix" values="0 0 0 0 0 0 0 0 0 0 0 0 0 0 0 0 0 0 127 0" result="hardAlpha"/>
<feOffset/>
<feGaussianBlur stdDeviation="8"/>
<feComposite in2="hardAlpha" operator="out"/>
<feColorMatrix type="matrix" values="0 0 0 0 0 0 0 0 0 0 0 0 0 0 0 0 0 0 0.25 0"/>
<feBlend mode="normal" in2="effect1_dropShadow_386_378" result="effect2_dropShadow_386_378"/>
<feColorMatrix in="SourceAlpha" type="matrix" values="0 0 0 0 0 0 0 0 0 0 0 0 0 0 0 0 0 0 127 0" result="hardAlpha"/>
<feOffset/>
<feGaussianBlur stdDeviation="4"/>
<feComposite in2="hardAlpha" operator="out"/>
<feColorMatrix type="matrix" values="0 0 0 0 0 0 0 0 0 0 0 0 0 0 0 0 0 0 0.25 0"/>
<feBlend mode="normal" in2="effect2_dropShadow_386_378" result="effect3_dropShadow_386_378"/>
<feBlend mode="normal" in="SourceGraphic" in2="effect3_dropShadow_386_378" result="shape"/>
</filter>
<filter id="filter7_ddd_386_378" x="125.37" y="-10" width="52.3387" height="85.2354" filterUnits="userSpaceOnUse" color-interpolation-filters="sRGB">
<feFlood flood-opacity="0" result="BackgroundImageFix"/>
<feColorMatrix in="SourceAlpha" type="matrix" values="0 0 0 0 0 0 0 0 0 0 0 0 0 0 0 0 0 0 127 0" result="hardAlpha"/>
<feOffset/>
<feGaussianBlur stdDeviation="12"/>
<feComposite in2="hardAlpha" operator="out"/>
<feColorMatrix type="matrix" values="0 0 0 0 0 0 0 0 0 0 0 0 0 0 0 0 0 0 0.5 0"/>
<feBlend mode="normal" in2="BackgroundImageFix" result="effect1_dropShadow_386_378"/>
<feColorMatrix in="SourceAlpha" type="matrix" values="0 0 0 0 0 0 0 0 0 0 0 0 0 0 0 0 0 0 127 0" result="hardAlpha"/>
<feOffset/>
<feGaussianBlur stdDeviation="8"/>
<feComposite in2="hardAlpha" operator="out"/>
<feColorMatrix type="matrix" values="0 0 0 0 0 0 0 0 0 0 0 0 0 0 0 0 0 0 0.25 0"/>
<feBlend mode="normal" in2="effect1_dropShadow_386_378" result="effect2_dropShadow_386_378"/>
<feColorMatrix in="SourceAlpha" type="matrix" values="0 0 0 0 0 0 0 0 0 0 0 0 0 0 0 0 0 0 127 0" result="hardAlpha"/>
<feOffset/>
<feGaussianBlur stdDeviation="4"/>
<feComposite in2="hardAlpha" operator="out"/>
<feColorMatrix type="matrix" values="0 0 0 0 0 0 0 0 0 0 0 0 0 0 0 0 0 0 0.25 0"/>
<feBlend mode="normal" in2="effect2_dropShadow_386_378" result="effect3_dropShadow_386_378"/>
<feBlend mode="normal" in="SourceGraphic" in2="effect3_dropShadow_386_378" result="shape"/>
</filter>
<filter id="filter8_ddd_386_378" x="92.9372" y="0.963867" width="74.3934" height="85.6494" filterUnits="userSpaceOnUse" color-interpolation-filters="sRGB">
<feFlood flood-opacity="0" result="BackgroundImageFix"/>
<feColorMatrix in="SourceAlpha" type="matrix" values="0 0 0 0 0 0 0 0 0 0 0 0 0 0 0 0 0 0 127 0" result="hardAlpha"/>
<feOffset/>
<feGaussianBlur stdDeviation="12"/>
<feComposite in2="hardAlpha" operator="out"/>
<feColorMatrix type="matrix" values="0 0 0 0 0 0 0 0 0 0 0 0 0 0 0 0 0 0 0.5 0"/>
<feBlend mode="normal" in2="BackgroundImageFix" result="effect1_dropShadow_386_378"/>
<feColorMatrix in="SourceAlpha" type="matrix" values="0 0 0 0 0 0 0 0 0 0 0 0 0 0 0 0 0 0 127 0" result="hardAlpha"/>
<feOffset/>
<feGaussianBlur stdDeviation="8"/>
<feComposite in2="hardAlpha" operator="out"/>
<feColorMatrix type="matrix" values="0 0 0 0 0 0 0 0 0 0 0 0 0 0 0 0 0 0 0.25 0"/>
<feBlend mode="normal" in2="effect1_dropShadow_386_378" result="effect2_dropShadow_386_378"/>
<feColorMatrix in="SourceAlpha" type="matrix" values="0 0 0 0 0 0 0 0 0 0 0 0 0 0 0 0 0 0 127 0" result="hardAlpha"/>
<feOffset/>
<feGaussianBlur stdDeviation="4"/>
<feComposite in2="hardAlpha" operator="out"/>
<feColorMatrix type="matrix" values="0 0 0 0 0 0 0 0 0 0 0 0 0 0 0 0 0 0 0.25 0"/>
<feBlend mode="normal" in2="effect2_dropShadow_386_378" result="effect3_dropShadow_386_378"/>
<feBlend mode="normal" in="SourceGraphic" in2="effect3_dropShadow_386_378" result="shape"/>
</filter>
<filter id="filter9_ddd_386_378" x="46.7341" y="0.963867" width="87.6676" height="74.2715" filterUnits="userSpaceOnUse" color-interpolation-filters="sRGB">
<feFlood flood-opacity="0" result="BackgroundImageFix"/>
<feColorMatrix in="SourceAlpha" type="matrix" values="0 0 0 0 0 0 0 0 0 0 0 0 0 0 0 0 0 0 127 0" result="hardAlpha"/>
<feOffset/>
<feGaussianBlur stdDeviation="12"/>
<feComposite in2="hardAlpha" operator="out"/>
<feColorMatrix type="matrix" values="0 0 0 0 0 0 0 0 0 0 0 0 0 0 0 0 0 0 0.5 0"/>
<feBlend mode="normal" in2="BackgroundImageFix" result="effect1_dropShadow_386_378"/>
<feColorMatrix in="SourceAlpha" type="matrix" values="0 0 0 0 0 0 0 0 0 0 0 0 0 0 0 0 0 0 127 0" result="hardAlpha"/>
<feOffset/>
<feGaussianBlur stdDeviation="8"/>
<feComposite in2="hardAlpha" operator="out"/>
<feColorMatrix type="matrix" values="0 0 0 0 0 0 0 0 0 0 0 0 0 0 0 0 0 0 0.25 0"/>
<feBlend mode="normal" in2="effect1_dropShadow_386_378" result="effect2_dropShadow_386_378"/>
<feColorMatrix in="SourceAlpha" type="matrix" values="0 0 0 0 0 0 0 0 0 0 0 0 0 0 0 0 0 0 127 0" result="hardAlpha"/>
<feOffset/>
<feGaussianBlur stdDeviation="4"/>
<feComposite in2="hardAlpha" operator="out"/>
<feColorMatrix type="matrix" values="0 0 0 0 0 0 0 0 0 0 0 0 0 0 0 0 0 0 0.25 0"/>
<feBlend mode="normal" in2="effect2_dropShadow_386_378" result="effect3_dropShadow_386_378"/>
<feBlend mode="normal" in="SourceGraphic" in2="effect3_dropShadow_386_378" result="shape"/>
</filter>
<filter id="filter10_ddd_386_378" x="16.243" y="0.963867" width="72.7406" height="74.8926" filterUnits="userSpaceOnUse" color-interpolation-filters="sRGB">
<feFlood flood-opacity="0" result="BackgroundImageFix"/>
<feColorMatrix in="SourceAlpha" type="matrix" values="0 0 0 0 0 0 0 0 0 0 0 0 0 0 0 0 0 0 127 0" result="hardAlpha"/>
<feOffset/>
<feGaussianBlur stdDeviation="12"/>
<feComposite in2="hardAlpha" operator="out"/>
<feColorMatrix type="matrix" values="0 0 0 0 0 0 0 0 0 0 0 0 0 0 0 0 0 0 0.5 0"/>
<feBlend mode="normal" in2="BackgroundImageFix" result="effect1_dropShadow_386_378"/>
<feColorMatrix in="SourceAlpha" type="matrix" values="0 0 0 0 0 0 0 0 0 0 0 0 0 0 0 0 0 0 127 0" result="hardAlpha"/>
<feOffset/>
<feGaussianBlur stdDeviation="8"/>
<feComposite in2="hardAlpha" operator="out"/>
<feColorMatrix type="matrix" values="0 0 0 0 0 0 0 0 0 0 0 0 0 0 0 0 0 0 0.25 0"/>
<feBlend mode="normal" in2="effect1_dropShadow_386_378" result="effect2_dropShadow_386_378"/>
<feColorMatrix in="SourceAlpha" type="matrix" values="0 0 0 0 0 0 0 0 0 0 0 0 0 0 0 0 0 0 127 0" result="hardAlpha"/>
<feOffset/>
<feGaussianBlur stdDeviation="4"/>
<feComposite in2="hardAlpha" operator="out"/>
<feColorMatrix type="matrix" values="0 0 0 0 0 0 0 0 0 0 0 0 0 0 0 0 0 0 0.25 0"/>
<feBlend mode="normal" in2="effect2_dropShadow_386_378" result="effect3_dropShadow_386_378"/>
<feBlend mode="normal" in="SourceGraphic" in2="effect3_dropShadow_386_378" result="shape"/>
</filter>
<filter id="filter11_ddd_386_378" x="-9" y="-8.96582" width="73.9286" height="84.2012" filterUnits="userSpaceOnUse" color-interpolation-filters="sRGB">
<feFlood flood-opacity="0" result="BackgroundImageFix"/>
<feColorMatrix in="SourceAlpha" type="matrix" values="0 0 0 0 0 0 0 0 0 0 0 0 0 0 0 0 0 0 127 0" result="hardAlpha"/>
<feOffset/>
<feGaussianBlur stdDeviation="12"/>
<feComposite in2="hardAlpha" operator="out"/>
<feColorMatrix type="matrix" values="0 0 0 0 0 0 0 0 0 0 0 0 0 0 0 0 0 0 0.5 0"/>
<feBlend mode="normal" in2="BackgroundImageFix" result="effect1_dropShadow_386_378"/>
<feColorMatrix in="SourceAlpha" type="matrix" values="0 0 0 0 0 0 0 0 0 0 0 0 0 0 0 0 0 0 127 0" result="hardAlpha"/>
<feOffset/>
<feGaussianBlur stdDeviation="8"/>
<feComposite in2="hardAlpha" operator="out"/>
<feColorMatrix type="matrix" values="0 0 0 0 0 0 0 0 0 0 0 0 0 0 0 0 0 0 0.25 0"/>
<feBlend mode="normal" in2="effect1_dropShadow_386_378" result="effect2_dropShadow_386_378"/>
<feColorMatrix in="SourceAlpha" type="matrix" values="0 0 0 0 0 0 0 0 0 0 0 0 0 0 0 0 0 0 127 0" result="hardAlpha"/>
<feOffset/>
<feGaussianBlur stdDeviation="4"/>
<feComposite in2="hardAlpha" operator="out"/>
<feColorMatrix type="matrix" values="0 0 0 0 0 0 0 0 0 0 0 0 0 0 0 0 0 0 0.25 0"/>
<feBlend mode="normal" in2="effect2_dropShadow_386_378" result="effect3_dropShadow_386_378"/>
<feBlend mode="normal" in="SourceGraphic" in2="effect3_dropShadow_386_378" result="shape"/>
</filter>
<clipPath id="clip0_386_378">
<rect width="350" height="76" fill="white"/>
</clipPath>
</defs>
</svg>
